<svg width="384" height="384" viewBox="0 0 384 384" fill="none" xmlns="http://www.w3.org/2000/svg">
<path opacity="0.35" d="M256 304H96C69.488 304 48 282.512 48 256V96C48 69.488 69.488 48 96 48H256C282.512 48 304 69.488 304 96V256C304 282.512 282.512 304 256 304Z" fill="#454444"/>
<path d="M160 240C155.904 240 151.808 238.432 148.688 235.312L100.688 187.312C94.4321 181.056 94.4321 170.944 100.688 164.688C106.944 158.432 117.056 158.432 123.312 164.688L160 201.376L228.688 132.688C234.944 126.432 245.056 126.432 251.312 132.688C257.568 138.944 257.568 149.056 251.312 155.312L171.312 235.312C168.192 238.432 164.096 240 160 240Z" fill="#454444"/>
<path d="M301.758 82.2402C303.07 86.6242 303.998 91.1842 303.998 96.0002V256C303.998 282.512 282.51 304 255.998 304H95.9983C91.1823 304 86.6223 303.072 82.2383 301.76C88.1903 321.52 106.302 336 127.998 336H287.998C314.51 336 335.998 314.512 335.998 288V128C335.998 106.304 321.518 88.1922 301.758 82.2402Z" fill="#454444"/>
</svg>
