<svg width="384" height="384" viewBox="0 0 384 384" fill="none" xmlns="http://www.w3.org/2000/svg">
<path opacity="0.35" d="M192 352C280.366 352 352 280.366 352 192C352 103.634 280.366 32 192 32C103.634 32 32 103.634 32 192C32 280.366 103.634 352 192 352Z" fill="black"/>
<path d="M176 256C171.904 256 167.808 254.432 164.688 251.312L116.688 203.312C110.432 197.056 110.432 186.944 116.688 180.688C122.944 174.432 133.056 174.432 139.312 180.688L176 217.376L324.688 68.6881C330.944 62.4321 341.056 62.4321 347.312 68.6881C353.568 74.9441 353.568 85.0561 347.312 91.3121L187.312 251.312C184.192 254.432 180.096 256 176 256Z" fill="black"/>
</svg>
