<svg width="384" height="384" viewBox="0 0 384 384" fill="none" xmlns="http://www.w3.org/2000/svg">
<path opacity="0.35" d="M288 336H96C69.488 336 48 314.512 48 288V96C48 69.488 69.488 48 96 48H288C314.512 48 336 69.488 336 96V288C336 314.512 314.512 336 288 336Z" fill="black"/>
<path d="M236.993 259.44L124.561 147.008C118.417 140.864 118.417 130.88 124.561 124.736L124.737 124.56C130.881 118.416 140.865 118.416 147.009 124.56L259.441 236.992C265.585 243.136 265.585 253.12 259.441 259.264L259.265 259.44C253.121 265.584 243.137 265.584 236.993 259.44Z" fill="black"/>
<path d="M124.561 236.992L236.993 124.56C243.137 118.416 253.121 118.416 259.265 124.56L259.441 124.736C265.585 130.88 265.585 140.864 259.441 147.008L147.009 259.44C140.865 265.584 130.881 265.584 124.737 259.44L124.561 259.264C118.417 253.12 118.417 243.136 124.561 236.992Z" fill="black"/>
</svg>
