<svg width="384" height="384" viewBox="0 0 384 384" fill="none" xmlns="http://www.w3.org/2000/svg">
<path opacity="0.35" d="M245.632 352H138.368C114.16 352 93.744 333.968 90.736 309.952L64 96H320L293.248 309.952C290.256 333.968 269.84 352 245.632 352Z" fill="black"/>
<path d="M256 64H128V48C128 39.168 135.168 32 144 32H240C248.832 32 256 39.168 256 48V64Z" fill="black"/>
<path d="M304 48C294.384 48 89.616 48 80 48C62.32 48 48 62.32 48 80C48 97.68 62.32 112 80 112C89.616 112 294.384 112 304 112C321.68 112 336 97.68 336 80C336 62.32 321.68 48 304 48Z" fill="black"/>
</svg>
