<svg width="384" height="384" viewBox="0 0 384 384" fill="none" xmlns="http://www.w3.org/2000/svg">
<path opacity="0.35" d="M288 336H96C69.488 336 48 314.512 48 288V160C48 133.488 69.488 112 96 112H288C314.512 112 336 133.488 336 160V288C336 314.512 314.512 336 288 336Z" fill="black"/>
<path d="M128 112C128 76.656 156.656 48 192 48C227.344 48 256 76.656 256 112H288C288 58.976 245.024 16 192 16C138.976 16 96 58.976 96 112H128Z" fill="black"/>
<path d="M192 192C174.32 192 160 206.32 160 224C160 241.68 174.32 256 192 256C209.68 256 224 241.68 224 224C224 206.32 209.68 192 192 192Z" fill="black"/>
</svg>
