<svg width="384" height="384" viewBox="0 0 384 384" fill="none" xmlns="http://www.w3.org/2000/svg">
<path opacity="0.35" d="M320 224H64C46.32 224 32 209.68 32 192C32 174.32 46.32 160 64 160H320C337.68 160 352 174.32 352 192C352 209.68 337.68 224 320 224Z" fill="black"/>
<path d="M320 112H64C46.32 112 32 97.68 32 80C32 62.32 46.32 48 64 48H320C337.68 48 352 62.32 352 80C352 97.68 337.68 112 320 112Z" fill="black"/>
<path d="M320 336H64C46.32 336 32 321.68 32 304C32 286.32 46.32 272 64 272H320C337.68 272 352 286.32 352 304C352 321.68 337.68 336 320 336Z" fill="black"/>
</svg>
