<svg width="384" height="384" viewBox="0 0 384 384" fill="none" xmlns="http://www.w3.org/2000/svg">
<path opacity="0.35" d="M319.536 233.328C319.76 230.24 320 227.152 320 224C320 153.312 262.688 96 192 96C121.312 96 64 153.312 64 224C64 227.152 64.24 230.24 64.464 233.328C54.928 236.496 48 245.392 48 256C48 269.248 58.752 280 72 280C73.648 280 75.248 279.84 76.8 279.52C97.488 322.368 141.232 352 192 352C242.768 352 286.512 322.368 307.2 279.52C308.752 279.84 310.352 280 312 280C325.248 280 336 269.248 336 256C336 245.392 329.072 236.496 319.536 233.328Z" fill="black"/>
<path d="M144 240C152.837 240 160 232.837 160 224C160 215.163 152.837 208 144 208C135.163 208 128 215.163 128 224C128 232.837 135.163 240 144 240Z" fill="black"/>
<path d="M240 240C248.837 240 256 232.837 256 224C256 215.163 248.837 208 240 208C231.163 208 224 215.163 224 224C224 232.837 231.163 240 240 240Z" fill="black"/>
<path d="M240 64C240 46.32 225.68 32 208 32H192C112.464 32 48 96.464 48 176V224C48 232.832 55.168 240 64 240C72.832 240 80 235.312 80 224C80 197.76 101.488 176 128 176H256C282.512 176 304 197.488 304 224C304 233.344 311.168 240 320 240C328.832 240 336 232.832 336 224V176C336 64 240 64 240 64Z" fill="black"/>
</svg>
